<svg id="Capa_1" data-name="Capa 1" xmlns="http://www.w3.org/2000/svg" viewBox="0 0 216.55 75.33"><defs><style>.cls-1{fill:#30b2e6;}.cls-2{fill:#2fb1e5;}.cls-3{fill:#2fb2e5;}.cls-4{fill:#30b2e5;}.cls-5{fill:#2eb1e5;}.cls-6{fill:#2eb2e6;}.cls-7{fill:#31b3e6;}.cls-8{fill:#38b3e3;}.cls-9{fill:#3fb3e1;}.cls-10{fill:#3db0dd;}</style></defs><title>logo-menu</title><path class="cls-1" d="M49.12,95.15V68.41A10.63,10.63,0,0,1,60,57.52q26.66,0,53.32,0a11,11,0,0,1,11.13,11.12V120.9c0,7.33-4.61,11.9-12,11.9-17.3,0-34.6-.08-51.91,0a11.29,11.29,0,0,1-11.5-11.47c.3-8.73.07-17.48.07-26.22Zm9-.11h.06c0,8.62,0,17.25,0,25.87,0,2.42.3,2.81,2.65,2.81h51.57c2.57,0,3-.4,3-3v-51a9.46,9.46,0,0,0,0-1.41,1.85,1.85,0,0,0-2.06-1.71c-1,0-1.88-.26-2.33,1.3A25.78,25.78,0,0,1,79.18,85.66c-9-2.48-14.87-8.49-17.93-17.27-.29-.85-.09-2-1.58-1.75-1.19.23-1.57,1-1.57,2.17Q58.11,81.92,58.11,95Zm43.66-28.35a16.29,16.29,0,0,0-1.72-.18c-9.55,0-19.1.07-28.65,0-1,0-1.27.1-.76,1.11,2.72,5.33,6.81,8.78,12.87,9.68A16.64,16.64,0,0,0,101.77,66.69Z" transform="translate(-49.05 -57.51)"/><path class="cls-2" d="M141.72,102.59c0-2.32,0-4.63,0-6.94a2.58,2.58,0,0,1,2.9-2.89q.94,0,1.89,0a2.11,2.11,0,0,1,1.76.73c.54.73.87.49,1.4,0,2.11-1.85,7.37-2.14,9.82,1.26.42.59.67.54,1.16.08a8.27,8.27,0,0,1,5.73-2.66c3.37,0,5.52,1.75,7,4.59a13.79,13.79,0,0,1,1.3,6.12c.07,2.26,0,4.51,0,6.77a3.35,3.35,0,0,1-2.22,3.32,3.39,3.39,0,0,1-3.87-1,3.33,3.33,0,0,1-.73-2.3q0-4.11,0-8.22a3.2,3.2,0,0,0-.8-2.36,2.78,2.78,0,0,0-3-.83,3.08,3.08,0,0,0-2,2.75c0,2.86,0,5.71,0,8.57A3.33,3.33,0,0,1,160,113a4,4,0,0,1-4.37-.77,3.43,3.43,0,0,1-.92-2.57c0-2.83,0-5.65,0-8.48a3,3,0,0,0-2.2-2.91,2.93,2.93,0,0,0-3.33,1.78,3.94,3.94,0,0,0-.19,1.6c0,2.66,0,5.31,0,8a3.41,3.41,0,0,1-2.19,3.43,3.78,3.78,0,0,1-4.35-1.07,3.44,3.44,0,0,1-.72-2.31C141.71,107.27,141.72,104.93,141.72,102.59Z" transform="translate(-49.05 -57.51)"/><path class="cls-3" d="M191,105.08h-6.33c-.2,0-.5-.15-.6.13s.12.43.27.59a5.15,5.15,0,0,0,4,1.9h6.25a2.8,2.8,0,0,1,2.73,1.55,2.72,2.72,0,0,1-2.36,3.94c-3.27,0-6.56.33-9.82-.24a10.75,10.75,0,0,1-8.2-8.78c-.86-6.81,4.86-11.85,10.73-11.81,3.29,0,6.25.65,8.71,3a10.58,10.58,0,0,1,3.31,6.92,2.52,2.52,0,0,1-2.64,2.84C195.06,105,193,105.08,191,105.08Zm-2.72-4.66h3.59c.19,0,.47,0,.56-.09s-.09-.43-.22-.58a5.05,5.05,0,0,0-7.9.07c-.11.12-.24.31-.21.44s.32.16.51.16Z" transform="translate(-49.05 -57.51)"/><path class="cls-4" d="M209.74,66.64a4.62,4.62,0,0,1,6.09-1,2.61,2.61,0,0,1,1,2.14c0,5.14,0,10.27,0,15.41,0,1.37-.61,2-2,2-.57,0-1.15,0-1.71,0a2.82,2.82,0,0,1-2.51-1,1.3,1.3,0,0,0-1.95-.21,6.26,6.26,0,0,1-5.11,1.09,9.83,9.83,0,0,1-7.44-6.4,10.5,10.5,0,0,1,5.53-13.52,11.4,11.4,0,0,1,6.81-.46C209.47,64.89,209.57,65.15,209.74,66.64Zm-.24,8h0c0-.51,0-1,0-1.54,0-1.78-.29-2.22-1.94-2.83a3.58,3.58,0,0,0-4.83,2.17,7.49,7.49,0,0,0-.2,3.63,4.05,4.05,0,0,0,2.92,3.54c1.68.42,3.77,0,4-2.15A26.52,26.52,0,0,0,209.5,74.62Z" transform="translate(-49.05 -57.51)"/><path class="cls-3" d="M165.87,67a4.46,4.46,0,0,1,5.76-1.66,2.53,2.53,0,0,1,1.54,2.38q0,7.84,0,15.67a1.64,1.64,0,0,1-1.88,1.81c-.49,0-1,0-1.46,0a3.15,3.15,0,0,1-3-1.13,1.06,1.06,0,0,0-1.53-.25c-3.88,3.17-9.36.4-11.61-2.8A10.65,10.65,0,0,1,158,65.18a12,12,0,0,1,6.82-.48C166.13,64.91,165.86,66,165.87,67Zm0,7.72V72.25a1.11,1.11,0,0,0-.18-.81A4,4,0,0,0,162.26,70a3.18,3.18,0,0,0-3,1.9,6.93,6.93,0,0,0-.36,4.28,4,4,0,0,0,2.78,3.37c2.13.6,4.38-.35,4.18-3C165.83,75.94,165.86,75.33,165.86,74.73Z" transform="translate(-49.05 -57.51)"/><path class="cls-3" d="M237.94,92.05a10.75,10.75,0,0,1,2.59,21.28,12.43,12.43,0,0,1-9.23-1.39,11,11,0,0,1-4.9-11c.65-4.36,5.15-9.2,10.94-8.87C237.51,92.06,237.68,92.05,237.94,92.05Zm4.16,10.62a4,4,0,0,0-.2-1.47,4.44,4.44,0,0,0-3.72-3.43,4,4,0,0,0-4,2.1,5.48,5.48,0,0,0,.17,6.11,4,4,0,0,0,6.15.73A5.14,5.14,0,0,0,242.1,102.67Z" transform="translate(-49.05 -57.51)"/><path class="cls-5" d="M202.51,102.59V95.82a2.57,2.57,0,0,1,2.89-2.9c.57,0,1.14,0,1.71,0a2.43,2.43,0,0,1,2.38,1.19c.2.33.37.4.74.17a17.48,17.48,0,0,1,2.17-1.18c4.38-2,8.9,0,10.65,4.6a13.66,13.66,0,0,1,.88,4.77c0,2.45,0,4.91,0,7.36a3.46,3.46,0,0,1-2.74,3.45A3.65,3.65,0,0,1,217,111a3.37,3.37,0,0,1-.13-1c0-2.45,0-4.91,0-7.36a8.33,8.33,0,0,0-.36-2.44,2.77,2.77,0,0,0-3.61-1.83c-2.17.78-3.31,2-3.19,4.34s0,4.62,0,6.94a3.46,3.46,0,0,1-3.41,3.68,3.59,3.59,0,0,1-3.8-3.62C202.48,107.33,202.51,105,202.51,102.59Z" transform="translate(-49.05 -57.51)"/><path class="cls-3" d="M184.53,76.82l2.23-7.59c.18-.6.34-1.21.54-1.8A3.38,3.38,0,0,1,190.18,65a3.42,3.42,0,0,1,3.88,2,3.28,3.28,0,0,1,.1,2.57c-1.41,4-2.86,7.92-4.3,11.87a5.67,5.67,0,0,1-5.32,3.83,5.6,5.6,0,0,1-5.71-3.73c-1.47-4.13-2.89-8.27-4.29-12.42A3.41,3.41,0,0,1,177.23,65c2.6-.3,4.14.58,4.79,3.09C182.75,70.94,183.64,73.75,184.53,76.82Z" transform="translate(-49.05 -57.51)"/><path class="cls-3" d="M258.87,92.07a11,11,0,0,1,3.24.33,2.56,2.56,0,0,1,2.21,3.08,2.65,2.65,0,0,1-3.39,1.88,7,7,0,0,0-2.63-.2,1.07,1.07,0,0,0-1.05.83,1,1,0,0,0,.62,1.19,16.93,16.93,0,0,0,2.67,1.12c2.07.81,3.93,1.9,4.68,4.17a6,6,0,0,1-2.83,7.53,12.55,12.55,0,0,1-7.81,1.15,10,10,0,0,1-2.58-.55,2.57,2.57,0,0,1-1.61-3.31,2.76,2.76,0,0,1,3.34-1.64,9.55,9.55,0,0,0,3.44.51c.68-.07,1.35-.19,1.53-1s-.35-1.19-1-1.49c-1.23-.58-2.57-.91-3.78-1.56-2.35-1.26-3.83-3-3.57-5.86s1.93-4.52,4.43-5.55A9.06,9.06,0,0,1,258.87,92.07Z" transform="translate(-49.05 -57.51)"/><path class="cls-6" d="M141.86,71.42c0-3.37.07-6.74,0-10.11a3.78,3.78,0,1,1,7.56,0q0,10.1,0,20.21A3.81,3.81,0,0,1,142,82.79a3.69,3.69,0,0,1-.14-1.36C141.85,78.09,141.86,74.76,141.86,71.42Z" transform="translate(-49.05 -57.51)"/><path class="cls-7" d="M227.5,76.64c-1.4,0-2.79,0-4.19,0a2.49,2.49,0,0,1-2.66-2.39,2.54,2.54,0,0,1,2.64-2.69c2.79,0,5.58,0,8.38,0a2.67,2.67,0,0,1,2.81,2.6,2.62,2.62,0,0,1-2.88,2.49c-1.37,0-2.73,0-4.1,0Z" transform="translate(-49.05 -57.51)"/><path class="cls-8" d="M214.88,131.44c-2,1.79-4.63,1.8-6.26.12a4.43,4.43,0,0,1-.12-5.94c1.6-1.77,4.23-1.82,6.27-.12.28-.23.14-.54.15-.8q0-2.37,0-4.74c0-.4.05-.64.55-.64s.59.18.59.61q0,6,0,12.07c0,.45-.15.61-.6.6s-.59-.13-.55-.55A3.68,3.68,0,0,0,214.88,131.44Zm-3.2.33a3.26,3.26,0,0,0,3.39-3.25,3.3,3.3,0,0,0-3.34-3.23,3.1,3.1,0,0,0-3.18,3.23A3.06,3.06,0,0,0,211.68,131.77Z" transform="translate(-49.05 -57.51)"/><path class="cls-9" d="M264.38,131.7a3.74,3.74,0,0,1-3.13,1.09A2.69,2.69,0,0,1,258.8,131a2.44,2.44,0,0,1,1.63-2.87,7.16,7.16,0,0,1,3.3-.44c.74,0,.82-.32.69-.9a1.93,1.93,0,0,0-2.16-1.45,3.36,3.36,0,0,0-2.1.65c-.46.37-.56,0-.79-.24s-.08-.46.18-.63a4.61,4.61,0,0,1,4.42-.51,2.47,2.47,0,0,1,1.56,2.37c.05,1.64,0,3.27.07,4.91,0,.38.08.75-.48.81s-.49-.34-.57-.65A2.82,2.82,0,0,0,264.38,131.7Zm-1.53-3.1a3.82,3.82,0,0,0-2.22.54,1.39,1.39,0,0,0-.27,2.2,2.69,2.69,0,0,0,3.89-1C264.81,128.9,264.58,128.57,262.85,128.6Z" transform="translate(-49.05 -57.51)"/><path class="cls-9" d="M181.81,124.23c2,.1,3.32,1,3.23,3.12a34.39,34.39,0,0,0,.11,4.65c0,.3,0,.58-.38.65a.49.49,0,0,1-.67-.46c-.08-.56-.26-.49-.63-.16a3.42,3.42,0,0,1-4.72-.28,2.37,2.37,0,0,1,.89-3.51,7.2,7.2,0,0,1,3.27-.62c.34,0,.84.23,1-.23a1.4,1.4,0,0,0-.34-1.44c-.77-.82-2.34-.86-3.7-.13-.21.12-.4.52-.73.23s-.59-.66,0-1A5.34,5.34,0,0,1,181.81,124.23Zm.73,4.37a4.3,4.3,0,0,0-2.18.42,1.42,1.42,0,0,0-.87,1.44,1.22,1.22,0,0,0,.95,1.19,2.72,2.72,0,0,0,3.16-.94,2.07,2.07,0,0,0,.34-1.87c-.19-.52-.87-.15-1.32-.24Z" transform="translate(-49.05 -57.51)"/><path class="cls-9" d="M156.31,131.69a3.59,3.59,0,0,1-3,1.11,2.56,2.56,0,0,1-2.57-2A2.48,2.48,0,0,1,152.7,128a9.08,9.08,0,0,1,3.07-.32c.45,0,.67-.06.61-.62-.13-1.15-.86-1.76-2.23-1.72a3.58,3.58,0,0,0-2,.63c-.32.22-.51.26-.76-.12s-.16-.55.17-.76a4.64,4.64,0,0,1,4.59-.4,2.49,2.49,0,0,1,1.33,2.43c0,1.58.09,3.15.12,4.73,0,.35.18.77-.42.86s-.59-.31-.7-.66C156.43,131.93,156.38,131.86,156.31,131.69Zm-1.51-3.09a4.13,4.13,0,0,0-2.05.42,1.48,1.48,0,0,0-.86,1.3,1.35,1.35,0,0,0,.77,1.24,2.75,2.75,0,0,0,3.52-1.07C156.84,129.12,156.5,128.58,154.8,128.6Z" transform="translate(-49.05 -57.51)"/><path class="cls-8" d="M227.8,128.82c-.89,0-1.78,0-2.67,0-.58,0-.67.22-.56.73a2.65,2.65,0,0,0,1.84,2.1,3.31,3.31,0,0,0,3.3-.72c.19-.17.3-.59.65-.38s.72.44.25,1c-1.36,1.65-4.66,1.69-6.19,0-1.69-1.82-1.65-6.27,2-7.23a3.76,3.76,0,0,1,4.72,4c0,.44-.24.52-.6.52Zm-.53-.93c.75,0,1.49,0,2.23,0s.68-.26.53-.74a2.94,2.94,0,0,0-2.78-1.93,3.09,3.09,0,0,0-2.66,2c-.17.53,0,.73.54.7S226.56,127.89,227.27,127.89Z" transform="translate(-49.05 -57.51)"/><path class="cls-10" d="M194.09,125.7a4.05,4.05,0,0,1,1.95-1.35,2.88,2.88,0,0,1,3.83,2.4,39.64,39.64,0,0,1,.11,5.34c0,.43-.26.51-.62.52s-.49-.27-.5-.62a44.12,44.12,0,0,0-.11-4.74c-.17-1.24-.57-1.78-1.48-1.92a2.6,2.6,0,0,0-2.75,1.31,3.48,3.48,0,0,0-.38,1.65c0,1.15,0,2.3,0,3.45,0,.42.11.88-.6.87s-.55-.51-.56-.91c-.05-2.09.1-4.19-.11-6.29,0-.37-.25-.88.5-.93s.63.45.65.89A3,3,0,0,0,194.09,125.7Z" transform="translate(-49.05 -57.51)"/><path class="cls-9" d="M164.28,124.58c.95-.28,1.35,0,1.64.9.65,1.87,1.43,3.71,2.25,5.78l1.9-5c.16-.43.31-.86.45-1.3a.75.75,0,0,1,1.11-.45c.37.16,0,.54-.06.8-.87,2.24-1.75,4.47-2.61,6.71-.13.35-.26.63-.71.58s-.74,0-.94-.54C166.34,129.58,165.31,127.1,164.28,124.58Z" transform="translate(-49.05 -57.51)"/><path class="cls-8" d="M239.81,125.64a3.36,3.36,0,0,1,2.33-1.39c.29,0,.77-.19.77.4,0,.43,0,.86-.66.81-1.66-.11-2.4,1.27-2.46,2.8,0,1.18,0,2.36,0,3.53,0,.38.14.83-.55.81s-.5-.41-.51-.76c0-2.3,0-4.6,0-6.9,0-.27,0-.48.32-.44s.68-.19.74.33C239.76,125,239.78,125.26,239.81,125.64Z" transform="translate(-49.05 -57.51)"/><path class="cls-10" d="M142.78,119.38c.46.23.24.67.25,1,0,3.84,0,7.69,0,11.53,0,.44-.07.72-.6.72s-.62-.26-.62-.7q0-6,0-12c0-.21-.07-.48.25-.55q0,6,0,12c0,.23,0,.46,0,.68s.07.34.29.36.36-.12.37-.36,0-.46,0-.69Z" transform="translate(-49.05 -57.51)"/><path class="cls-6" d="M142.78,119.38v12c0,.23,0,.46,0,.69s-.12.38-.37.36-.29-.17-.29-.36,0-.45,0-.68q0-6,0-12Z" transform="translate(-49.05 -57.51)"/><path class="cls-10" d="M249.94,128.55c0-1.15,0-2.3,0-3.45,0-.41.08-.63.57-.62s.51.23.51.59q0,3.45,0,6.9c0,.4-.1.64-.58.64s-.5-.34-.5-.7Z" transform="translate(-49.05 -57.51)"/><path class="cls-9" d="M252.58,120.28c-1.38,2-2.1,2.52-3,2.42C250.41,120.75,251.2,120.09,252.58,120.28Z" transform="translate(-49.05 -57.51)"/></svg>