<svg id="Capa_1" data-name="Capa 1" xmlns="http://www.w3.org/2000/svg" viewBox="0 0 134.09 133.97"><defs><style>.cls-1{fill:#30b2e6;}</style></defs><title>logo-tab</title><path class="cls-1" d="M49.18,124.46q0-23.79,0-47.57A18.89,18.89,0,0,1,68.53,57.54q47.4-.06,94.82,0a19.5,19.5,0,0,1,19.79,19.77q0,46.47,0,92.94c0,13-8.2,21.16-21.3,21.16-30.77,0-61.54-.14-92.32.07-11.66.08-20.83-9.38-20.46-20.4.54-15.52.14-31.08.14-46.62Zm16-.21h.11c0,15.34,0,30.68,0,46,0,4.3.53,5,4.71,5h91.72c4.58,0,5.27-.72,5.27-5.26q0-45.39,0-90.78a16,16,0,0,0-.05-2.5,3.27,3.27,0,0,0-3.66-3c-1.77,0-3.35-.48-4.15,2.3a45.85,45.85,0,0,1-56.44,31.61c-16-4.42-26.46-15.11-31.89-30.73-.53-1.5-.17-3.62-2.81-3.1-2.11.41-2.8,1.83-2.8,3.86Q65.19,100.94,65.16,124.25Zm77.65-50.42c-1.23-.13-2.15-.31-3.07-.31-17,0-34,.11-50.94.09-1.84,0-2.26.17-1.35,2,4.83,9.48,12.11,15.61,22.89,17.21A29.57,29.57,0,0,0,142.81,73.83Z" transform="translate(-49.05 -57.51)"/></svg>